<svg xmlns="http://www.w3.org/2000/svg" viewBox="107.2 108.4 1073.1 1076.3" width="1073" height="1076" isolation="isolate"><style>.a{opacity:0.8;}.b{opacity:0.7;}</style><defs><clipPath><rect x="107.2" y="108.4" width="1073.1" height="1076.3"/></clipPath></defs><g clip-path="url(#_clipPath_NKl1fwkGj12es2MI48fThy2QEcIiRqlY)"><g class="a"><g class="a"><g class="a"><g class="a"><path d="M1018.4 255.1C995.7 238.1 949 226.2 894.9 225.7 818.4 224.9 756.1 247.4 755.9 275.8 755.6 304.1 817.5 327.8 893.9 328.5 917.7 328.7 940 326.7 959.6 323 955.5 342.5 953 364.9 952.8 388.6 952.1 465.1 974.5 527.4 1002.9 527.7 1031.3 528 1054.9 466.1 1055.7 389.6 1056.1 337.7 1046 292.3 1030.5 268.4 1028.7 264.9 1025.9 261.5 1022.2 258.3 1021.9 257.9 1021.5 257.6 1021.2 257.3 1021.1 257.2 1021 257.1 1020.9 257 1020 256.3 1019.2 255.7 1018.4 255.1ZM779.3 431.5C779.3 392.6 810.9 361 849.9 361 888.8 361 920.4 392.6 920.4 431.5 920.4 470.5 888.8 502.1 849.9 502.1 810.9 502.1 779.3 470.5 779.3 431.5Z" fill="rgb(240,226,42)"/></g></g></g></g><g class="a"><g class="a"><g class="a"><g class="a"><path d="M267 1022.5C289.7 1039.4 336.4 1051.3 390.4 1051.8 466.8 1052.6 529.2 1030.1 529.4 1001.7 529.7 973.3 467.8 949.7 391.3 949 367.6 948.8 345.3 950.8 325.7 954.5 329.8 935 332.3 912.6 332.5 888.9 333.2 812.4 310.8 750.1 282.4 749.8 254 749.5 230.4 811.4 229.6 887.9 229.1 939.8 239.3 985.3 254.8 1009.1 256.6 1012.6 259.4 1015.9 262.9 1019.1 264.3 1020.4 265.6 1021.5 267 1022.5ZM364.8 846C364.8 807.1 396.4 775.5 435.4 775.5 474.3 775.5 505.9 807.1 505.9 846 505.9 885 474.3 916.6 435.4 916.6 396.4 916.6 364.8 885 364.8 846Z" fill="rgb(161,142,195)"/></g></g></g></g><g class="a"><g class="a"><g class="a"><g class="a"><path d="M962 967.2C958.3 947.6 956.3 925.3 956.5 901.5 957.3 825.1 980.9 763.2 1009.3 763.5 1037.7 763.7 1060.1 826.1 1059.4 902.5 1058.9 956.5 1047 1003.1 1030 1025.9 1029.1 1027.3 1028 1028.6 1026.7 1029.9 1023.5 1033.5 1020.1 1036.3 1016.7 1038.1 992.8 1053.6 947.4 1063.8 895.4 1063.3 818.9 1062.5 757.1 1038.9 757.3 1010.5 757.6 982.1 819.9 959.7 896.4 960.4 920.2 960.6 942.5 963.1 962 967.2ZM783 857.5C783 818.6 814.6 787 853.5 787 892.5 787 924.1 818.6 924.1 857.5 924.1 896.5 892.5 928.1 853.5 928.1 814.6 928.1 783 896.5 783 857.5Z" fill="rgb(109,192,158)"/></g></g></g></g><g class="a"><g class="a"><g class="a"><g class="a"><path d="M1179.8 634.2C1175.9 606.2 1151.2 564.5 1113.3 525.9 1059.8 471.3 999.8 443.1 979.6 463 959.3 482.9 986.3 543.3 1039.9 597.9 1056.5 614.9 1073.7 629.2 1090.2 640.4 1073.5 651.3 1056 665.4 1039 682.1 984.4 735.6 956.2 795.5 976.1 815.8 996 836.1 1056.4 809 1111 755.5 1148.1 719.1 1173 679.8 1178.9 652 1180.1 648.2 1180.6 643.8 1180.3 638.9 1180.3 638.5 1180.3 638.2 1180.2 637.9 1180.2 637.5 1180.2 637.2 1180.1 636.9 1180.1 636 1180 635.1 1179.8 634.2ZM865.4 639.6C865.4 600.6 897 569 936 569 974.9 569 1006.5 600.6 1006.5 639.6 1006.5 678.5 974.9 710.1 936 710.1 897 710.1 865.4 678.5 865.4 639.6Z" fill="rgb(183,215,83)"/></g></g></g></g><g class="a"><g class="a"><g class="a"><g class="a"><path d="M258.2 270.2C241.2 293 229.3 339.7 228.8 393.6 228.1 470.1 250.5 532.4 278.9 532.7 307.3 532.9 330.9 471.1 331.7 394.6 331.9 370.9 329.9 348.5 326.2 328.9 345.7 333.1 368 335.5 391.8 335.7 468.3 336.4 530.6 314 530.9 285.6 531.1 257.2 469.3 233.6 392.8 232.9 340.8 232.4 295.4 242.6 271.6 258.1 268.1 259.8 264.7 262.6 261.5 266.2 260.2 267.5 259.1 268.9 258.2 270.2ZM364.1 438.7C364.1 399.7 395.7 368.1 434.6 368.1 473.6 368.1 505.2 399.7 505.2 438.7 505.2 477.6 473.6 509.2 434.6 509.2 395.7 509.2 364.1 477.6 364.1 438.7Z" fill="rgb(243,120,94)"/></g></g></g></g><g class="a"><g class="a"><g class="a"><g class="a"><path d="M645.1 109C617 112.9 575.4 137.6 536.8 175.5 482.2 229 454 289 473.9 309.2 493.7 329.5 554.2 302.5 608.8 248.9 625.7 232.3 640.1 215.1 651.3 198.6 662.2 215.3 676.3 232.8 692.9 249.8 746.5 304.4 806.4 332.6 826.7 312.7 846.9 292.8 819.9 232.4 766.4 177.8 730 140.7 690.7 115.8 662.9 109.9 659.1 108.7 654.7 108.2 649.7 108.5 649.4 108.5 649.1 108.6 648.7 108.6 648.4 108.6 648.1 108.6 647.8 108.7 646.9 108.7 646 108.8 645.1 109ZM579.9 352.9C579.9 313.9 611.5 282.3 650.5 282.3 689.4 282.3 721 313.9 721 352.9 721 391.8 689.4 423.4 650.5 423.4 611.5 423.4 579.9 391.8 579.9 352.9Z" fill="rgb(250,171,50)"/></g></g></g></g><g class="b"><g class="b"><g class="b"><g class="b"><path d="M649.6 1094.5C660.8 1078.1 675.2 1060.8 692.1 1044.2 746.7 990.7 807.1 963.6 827 983.9 846.9 1004.2 818.7 1064.1 764.1 1117.6 725.4 1155.6 683.7 1180.3 655.7 1184.2 654.9 1184.3 654.1 1184.4 653.2 1184.5 652.8 1184.5 652.3 1184.5 651.8 1184.6 651.6 1184.6 651.4 1184.6 651.3 1184.6 646.2 1184.9 641.7 1184.5 637.9 1183.2 610.1 1177.2 570.8 1152.3 534.5 1115.3 481 1060.7 453.9 1000.3 474.2 980.4 494.5 960.5 554.4 988.7 608 1043.3 624.6 1060.3 638.7 1077.8 649.6 1094.5ZM579.9 940.3C579.9 901.3 611.5 869.7 650.5 869.7 689.4 869.7 721 901.3 721 940.3 721 979.2 689.4 1010.8 650.5 1010.8 611.5 1010.8 579.9 979.2 579.9 940.3Z" fill="rgb(120,173,221)"/></g></g></g></g><g class="a"><g class="a"><g class="a"><g class="a"><path d="M107.8 644.9C111.7 673 136.3 714.6 174.3 753.3 227.8 807.8 287.8 836 308 816.1 328.3 796.3 301.3 735.8 247.7 681.2 231.1 664.3 213.9 649.9 197.4 638.7 214.1 627.8 231.6 613.7 248.6 597.1 303.2 543.5 331.4 483.6 311.5 463.3 291.6 443.1 231.2 470.1 176.6 523.7 139.5 560 114.6 599.3 108.7 627.1 107.5 630.9 107 635.3 107.3 640.3 107.3 640.6 107.3 640.9 107.4 641.3 107.4 641.6 107.4 641.9 107.5 642.2 107.5 643.2 107.6 644.1 107.8 644.9ZM281.1 639.6C281.1 600.6 312.8 569 351.7 569 390.6 569 422.3 600.6 422.3 639.6 422.3 678.5 390.6 710.1 351.7 710.1 312.8 710.1 281.1 678.5 281.1 639.6Z" fill="rgb(212,135,172)"/></g></g></g></g></g></svg>