<?xml version="1.0" encoding="UTF-8" standalone="no"?>
<!-- Generator: Gravit.io -->
<svg xmlns="http://www.w3.org/2000/svg" xmlns:xlink="http://www.w3.org/1999/xlink" style="isolation:isolate" viewBox="216.4 44.7 367 366.9" width="367pt" height="366.9pt"><defs><clipPath id="_clipPath_BpuKkL77a6PD3E2eeOYAAu4QbUmXBB2b"><rect x="216.4" y="44.7" width="367" height="366.9"/></clipPath></defs><g clip-path="url(#_clipPath_BpuKkL77a6PD3E2eeOYAAu4QbUmXBB2b)"><g><path d=" M 216.5 228.2 L 216.5 228.2 C 216.5 126.9 298.6 44.7 400 44.7 L 400 44.7 C 448.7 44.7 495.3 64 529.7 98.4 C 564.1 132.8 583.4 179.5 583.4 228.1 L 583.4 228.1 C 583.4 329.4 501.3 411.6 399.9 411.6 L 399.9 411.6 C 298.6 411.6 216.4 329.5 216.4 228.1 L 216.5 228.2 L 216.5 228.2 Z " fill="rgb(255,255,255)"/><path d=" M 477.3 96.7 C 453.5 96.7 434.4 103.7 434.3 112.6 C 434.2 121.6 453.9 129.1 478.2 129.4 C 478.6 129.4 479 129.4 479.5 129.4 C 503.2 129.4 522.3 122.4 522.4 113.5 C 522.5 104.5 502.9 97 478.5 96.7 C 478.1 96.7 477.7 96.7 477.4 96.7 L 477.3 96.7 L 477.3 96.7 Z " fill="rgb(240,226,42)"/><path d=" M 513.5 104.6 C 504.5 104.6 497 124.2 496.8 148.5 C 496.6 172.8 503.7 192.6 512.7 192.7 C 512.7 192.7 512.7 192.7 512.8 192.7 C 521.8 192.7 529.3 173.1 529.5 148.8 C 529.7 124.5 522.6 104.7 513.6 104.6 C 513.6 104.6 513.6 104.6 513.5 104.6 L 513.5 104.6 L 513.5 104.6 Z " fill="rgb(240,226,42)"/><path d=" M 464.1 139.7 C 451.7 139.7 441.7 149.7 441.7 162.1 C 441.7 174.5 451.7 184.5 464.1 184.5 C 476.5 184.5 486.5 174.5 486.5 162.1 C 486.5 149.7 476.5 139.7 464.1 139.7 Z " fill="rgb(240,226,42)"/><path d=" M 317.3 326.5 C 293.5 326.5 274.3 333.6 274.3 342.4 C 274.2 351.4 293.8 358.9 318.2 359.2 C 318.6 359.2 319 359.2 319.3 359.2 C 343.1 359.2 362.2 352.2 362.3 343.3 C 362.4 334.3 342.7 326.8 318.4 326.5 C 318 326.5 317.6 326.5 317.3 326.5 Z " fill="rgb(161,142,195)"/><path d=" M 283.7 263.2 C 274.7 263.2 267.2 282.8 267 307.1 C 266.8 331.4 273.9 351.2 282.9 351.3 C 282.9 351.3 282.9 351.3 283 351.3 C 292 351.3 299.5 331.7 299.7 307.4 C 299.9 283.1 292.8 263.3 283.8 263.2 C 283.8 263.2 283.8 263.2 283.7 263.2 Z " fill="rgb(161,142,195)"/><path d=" M 332.4 271.4 C 320 271.4 310 281.4 310 293.8 C 310 306.2 320 316.2 332.4 316.2 C 344.8 316.2 354.8 306.2 354.8 293.8 C 354.8 281.4 344.8 271.4 332.4 271.4 Z " fill="rgb(161,142,195)"/><path d=" M 514.7 267.6 C 505.7 267.6 498.2 287.2 498 311.5 C 497.7 335.8 504.9 355.6 513.9 355.7 C 513.9 355.7 513.9 355.7 514 355.7 C 523 355.7 530.5 336.1 530.7 311.8 C 530.9 287.5 523.8 267.7 514.8 267.6 C 514.8 267.6 514.8 267.6 514.7 267.6 L 514.7 267.6 L 514.7 267.6 Z " fill="rgb(109,192,158)"/><path d=" M 477.7 330.2 C 453.9 330.2 434.7 337.2 434.7 346.1 C 434.6 355.1 454.2 362.6 478.6 362.9 C 479 362.9 479.4 362.9 479.7 362.9 C 503.5 362.9 522.7 355.8 522.7 347 C 522.8 338 503.2 330.5 478.8 330.2 C 478.4 330.2 478 330.2 477.7 330.2 L 477.7 330.2 L 477.7 330.2 Z " fill="rgb(109,192,158)"/><path d=" M 465.3 275 C 452.9 275 442.9 285 442.9 297.4 C 442.9 309.8 452.9 319.8 465.3 319.8 C 477.7 319.8 487.7 309.8 487.7 297.4 C 487.7 285 477.7 275 465.3 275 Z " fill="rgb(109,192,158)"/><path d=" M 511.1 170.1 C 508.7 170.1 506.7 170.7 505.3 172.1 C 498.8 178.4 507.4 197.6 524.5 215 C 537.8 228.6 552.4 237 561.1 237 C 563.5 237 565.5 236.3 567 235 C 573.4 228.7 564.8 209.5 547.8 192.1 C 534.5 178.5 519.9 170.1 511.2 170.1 L 511.1 170.1 L 511.1 170.1 Z " fill="rgb(183,215,83)"/><path d=" M 561 220.4 C 552.2 220.4 537.6 228.5 524.2 241.7 C 506.9 258.7 497.9 277.7 504.2 284.2 C 505.6 285.6 507.7 286.3 510.3 286.3 C 519.1 286.3 533.7 278.2 547.1 265 C 564.5 248 573.4 229 567.1 222.5 C 565.7 221 563.6 220.4 561 220.4 L 561 220.4 L 561 220.4 Z " fill="rgb(183,215,83)"/><path d=" M 491.5 205.8 C 479.1 205.8 469.1 215.8 469.1 228.2 C 469.1 240.6 479.1 250.6 491.5 250.6 C 503.9 250.6 513.9 240.6 513.9 228.2 C 513.9 215.8 503.9 205.8 491.5 205.8 Z " fill="rgb(183,215,83)"/><path d=" M 283.5 106.2 C 274.5 106.2 267 125.8 266.8 150.1 C 266.6 174.4 273.7 194.2 282.7 194.3 C 282.7 194.3 282.7 194.3 282.8 194.3 C 291.8 194.3 299.3 174.7 299.5 150.4 C 299.7 126.1 292.6 106.3 283.6 106.2 C 283.6 106.2 283.6 106.2 283.5 106.2 Z " fill="rgb(243,120,94)"/><path d=" M 317.7 99 C 293.9 99 274.7 106 274.6 114.9 C 274.5 123.9 294.2 131.4 318.5 131.7 C 318.9 131.7 319.3 131.7 319.8 131.7 C 343.5 131.7 362.6 124.6 362.7 115.8 C 362.8 106.8 343.1 99.3 318.8 99 C 318.4 99 318 99 317.7 99 L 317.7 99 L 317.7 99 Z " fill="rgb(243,120,94)"/><path d=" M 332.2 142 C 319.8 142 309.8 152 309.8 164.4 C 309.8 176.8 319.8 186.8 332.2 186.8 C 344.6 186.8 354.6 176.8 354.6 164.4 C 354.6 152 344.6 142 332.2 142 Z " fill="rgb(243,120,94)"/><path d=" M 401.4 59.4 C 392.6 59.4 378 67.5 364.6 80.7 C 347.2 97.7 338.3 116.7 344.6 123.2 C 346 124.7 348.1 125.3 350.7 125.3 C 359.5 125.3 374.1 117.2 387.5 104 C 404.9 87 413.8 68 407.5 61.5 C 406.1 60.1 404 59.4 401.4 59.4 Z " fill="rgb(250,171,50)"/><path d=" M 400.9 59.5 C 398.5 59.5 396.5 60.2 395.1 61.5 C 388.6 67.8 397.2 87 414.3 104.4 C 427.6 118 442.2 126.4 450.9 126.4 C 453.3 126.4 455.4 125.7 456.8 124.4 C 463.2 118.1 454.6 98.9 437.6 81.5 C 424.3 67.9 409.8 59.5 401 59.5 L 400.9 59.5 L 400.9 59.5 Z " fill="rgb(250,171,50)"/><path d=" M 400.7 114.7 C 388.3 114.7 378.3 124.7 378.3 137.1 C 378.3 149.5 388.3 159.5 400.7 159.5 C 413.1 159.5 423.1 149.5 423.1 137.1 C 423.1 124.7 413.1 114.7 400.7 114.7 L 400.7 114.7 L 400.7 114.7 Z " fill="rgb(250,171,50)"/><path d=" M 450.8 335.5 C 442 335.5 427.4 343.6 414 356.8 C 396.6 373.8 387.7 392.8 394 399.3 C 395.4 400.7 397.5 401.4 400.1 401.4 C 408.9 401.4 423.5 393.3 436.9 380.1 C 454.2 363.1 463.2 344 456.9 337.6 C 455.5 336.1 453.4 335.5 450.8 335.5 Z " fill="rgb(120,173,221)"/><path d=" M 350.6 334.5 C 348.2 334.5 346.2 335.2 344.8 336.5 C 338.3 342.8 346.9 362 364 379.4 C 377.3 393 391.9 401.4 400.6 401.4 C 403 401.4 405.1 400.7 406.5 399.4 C 412.9 393.1 404.3 373.9 387.3 356.5 C 374 342.9 359.4 334.5 350.7 334.5 L 350.6 334.5 L 350.6 334.5 Z " fill="rgb(120,173,221)"/><path d=" M 400.7 301.3 C 388.3 301.3 378.3 311.3 378.3 323.7 C 378.3 336.1 388.3 346.1 400.7 346.1 C 413.1 346.1 423.1 336.1 423.1 323.7 C 423.1 311.3 413.1 301.3 400.7 301.3 Z " fill="rgb(120,173,221)"/><path d=" M 236.1 219.4 C 233.7 219.4 231.7 220.1 230.2 221.4 C 223.8 227.7 232.4 246.9 249.4 264.3 C 262.7 277.9 277.3 286.3 286.1 286.3 C 288.5 286.3 290.5 285.6 291.9 284.3 C 298.4 278 289.8 258.8 272.7 241.4 C 259.4 227.8 244.8 219.4 236.1 219.4 Z " fill="rgb(212,135,172)"/><path d=" M 287 170.1 C 278.2 170.1 263.6 178.2 250.2 191.4 C 232.8 208.4 223.9 227.4 230.2 233.9 C 231.6 235.3 233.7 236 236.3 236 C 245.1 236 259.7 227.9 273.1 214.7 C 290.4 197.7 299.4 178.6 293.1 172.2 C 291.7 170.7 289.6 170.1 287 170.1 L 287 170.1 L 287 170.1 Z " fill="rgb(212,135,172)"/><path d=" M 305.8 205.8 C 293.4 205.8 283.4 215.8 283.4 228.2 C 283.4 240.6 293.4 250.6 305.8 250.6 C 318.2 250.6 328.2 240.6 328.2 228.2 C 328.2 215.8 318.2 205.8 305.8 205.8 Z " fill="rgb(212,135,172)"/></g></g></svg>