<?xml version="1.0" encoding="UTF-8" standalone="no"?>
<!-- Generator: Gravit.io -->
<svg xmlns="http://www.w3.org/2000/svg" xmlns:xlink="http://www.w3.org/1999/xlink" style="isolation:isolate" viewBox="229.115 129 341.04 342" width="341.04pt" height="342pt"><defs><clipPath id="_clipPath_e8Zg1TTP1p3XB4awfMnL6pbaeN0c1Nlh"><rect x="229.115" y="129" width="341.04" height="342"/></clipPath></defs><g clip-path="url(#_clipPath_e8Zg1TTP1p3XB4awfMnL6pbaeN0c1Nlh)"><g><path d=" M 478.332 166.3 C 454.532 166.3 435.432 173.3 435.332 182.2 C 435.232 191.2 454.932 198.7 479.232 199 C 479.632 199 480.032 199 480.532 199 C 504.232 199 523.332 192 523.432 183.1 C 523.532 174.1 503.932 166.6 479.532 166.3 C 479.132 166.3 478.732 166.3 478.432 166.3 L 478.332 166.3 Z " fill="rgb(255,255,255)"/><path d=" M 514.532 174.2 C 505.532 174.2 498.032 193.8 497.832 218.1 C 497.632 242.4 504.732 262.2 513.732 262.3 C 513.732 262.3 513.732 262.3 513.832 262.3 C 522.832 262.3 530.332 242.7 530.532 218.4 C 530.732 194.1 523.632 174.3 514.632 174.2 C 514.632 174.2 514.632 174.2 514.532 174.2 L 514.532 174.2 Z " fill="rgb(255,255,255)"/><path d=" M 465.132 209.3 C 452.732 209.3 442.732 219.3 442.732 231.7 C 442.732 244.1 452.732 254.1 465.132 254.1 C 477.532 254.1 487.532 244.1 487.532 231.7 C 487.532 219.3 477.532 209.3 465.132 209.3 Z " fill="rgb(255,255,255)"/><path d=" M 318.332 396.1 C 294.532 396.1 275.332 403.2 275.332 412 C 275.232 421 294.832 428.5 319.232 428.8 C 319.632 428.8 320.032 428.8 320.332 428.8 C 344.132 428.8 363.232 421.8 363.332 412.9 C 363.432 403.9 343.732 396.4 319.432 396.1 C 319.032 396.1 318.632 396.1 318.332 396.1 Z " fill="rgb(255,255,255)"/><path d=" M 284.732 332.8 C 275.732 332.8 268.232 352.4 268.032 376.7 C 267.832 401 274.932 420.8 283.932 420.9 C 283.932 420.9 283.932 420.9 284.032 420.9 C 293.032 420.9 300.532 401.3 300.732 377 C 300.932 352.7 293.832 332.9 284.832 332.8 C 284.832 332.8 284.832 332.8 284.732 332.8 Z " fill="rgb(255,255,255)"/><path d=" M 333.432 341 C 321.032 341 311.032 351 311.032 363.4 C 311.032 375.8 321.032 385.8 333.432 385.8 C 345.832 385.8 355.832 375.8 355.832 363.4 C 355.832 351 345.832 341 333.432 341 Z " fill="rgb(255,255,255)"/><path d=" M 515.732 337.2 C 506.732 337.2 499.232 356.8 499.032 381.1 C 498.732 405.4 505.932 425.2 514.932 425.3 C 514.932 425.3 514.932 425.3 515.032 425.3 C 524.032 425.3 531.532 405.7 531.732 381.4 C 531.932 357.1 524.832 337.3 515.832 337.2 C 515.832 337.2 515.832 337.2 515.732 337.2 L 515.732 337.2 Z " fill="rgb(255,255,255)"/><path d=" M 478.732 399.8 C 454.932 399.8 435.732 406.8 435.732 415.7 C 435.632 424.7 455.232 432.2 479.632 432.5 C 480.032 432.5 480.432 432.5 480.732 432.5 C 504.532 432.5 523.732 425.4 523.732 416.6 C 523.832 407.6 504.232 400.1 479.832 399.8 C 479.432 399.8 479.032 399.8 478.732 399.8 L 478.732 399.8 Z " fill="rgb(255,255,255)"/><path d=" M 466.332 344.6 C 453.932 344.6 443.932 354.6 443.932 367 C 443.932 379.4 453.932 389.4 466.332 389.4 C 478.732 389.4 488.732 379.4 488.732 367 C 488.732 354.6 478.732 344.6 466.332 344.6 Z " fill="rgb(255,255,255)"/><path d=" M 512.132 239.7 C 509.732 239.7 507.732 240.3 506.332 241.7 C 499.832 248 508.432 267.2 525.532 284.6 C 538.832 298.2 553.432 306.6 562.132 306.6 C 564.532 306.6 566.532 305.9 568.032 304.6 C 574.432 298.3 565.832 279.1 548.832 261.7 C 535.532 248.1 520.932 239.7 512.232 239.7 L 512.132 239.7 Z " fill="rgb(255,255,255)"/><path d=" M 562.032 290 C 553.232 290 538.632 298.1 525.232 311.3 C 507.932 328.3 498.932 347.3 505.232 353.8 C 506.632 355.2 508.732 355.9 511.332 355.9 C 520.132 355.9 534.732 347.8 548.132 334.6 C 565.532 317.6 574.432 298.6 568.132 292.1 C 566.732 290.6 564.632 290 562.032 290 L 562.032 290 Z " fill="rgb(255,255,255)"/><path d=" M 492.532 275.4 C 480.132 275.4 470.132 285.4 470.132 297.8 C 470.132 310.2 480.132 320.2 492.532 320.2 C 504.932 320.2 514.932 310.2 514.932 297.8 C 514.932 285.4 504.932 275.4 492.532 275.4 Z " fill="rgb(255,255,255)"/><path d=" M 284.532 175.8 C 275.532 175.8 268.032 195.4 267.832 219.7 C 267.632 244 274.732 263.8 283.732 263.9 C 283.732 263.9 283.732 263.9 283.832 263.9 C 292.832 263.9 300.332 244.3 300.532 220 C 300.732 195.7 293.632 175.9 284.632 175.8 C 284.632 175.8 284.632 175.8 284.532 175.8 Z " fill="rgb(255,255,255)"/><path d=" M 318.732 168.6 C 294.932 168.6 275.732 175.6 275.632 184.5 C 275.532 193.5 295.232 201 319.532 201.3 C 319.932 201.3 320.332 201.3 320.832 201.3 C 344.532 201.3 363.632 194.2 363.732 185.4 C 363.832 176.4 344.132 168.9 319.832 168.6 C 319.432 168.6 319.032 168.6 318.732 168.6 L 318.732 168.6 Z " fill="rgb(255,255,255)"/><path d=" M 333.232 211.6 C 320.832 211.6 310.832 221.6 310.832 234 C 310.832 246.4 320.832 256.4 333.232 256.4 C 345.632 256.4 355.632 246.4 355.632 234 C 355.632 221.6 345.632 211.6 333.232 211.6 Z " fill="rgb(255,255,255)"/><path d=" M 402.432 129 C 393.632 129 379.032 137.1 365.632 150.3 C 348.232 167.3 339.332 186.3 345.632 192.8 C 347.032 194.3 349.132 194.9 351.732 194.9 C 360.532 194.9 375.132 186.8 388.532 173.6 C 405.932 156.6 414.832 137.6 408.532 131.1 C 407.132 129.7 405.032 129 402.432 129 Z " fill="rgb(255,255,255)"/><path d=" M 401.932 129.1 C 399.532 129.1 397.532 129.8 396.132 131.1 C 389.632 137.4 398.232 156.6 415.332 174 C 428.632 187.6 443.232 196 451.932 196 C 454.332 196 456.432 195.3 457.832 194 C 464.232 187.7 455.632 168.5 438.632 151.1 C 425.332 137.5 410.832 129.1 402.032 129.1 L 401.932 129.1 Z " fill="rgb(255,255,255)"/><path d=" M 401.732 184.3 C 389.332 184.3 379.332 194.3 379.332 206.7 C 379.332 219.1 389.332 229.1 401.732 229.1 C 414.132 229.1 424.132 219.1 424.132 206.7 C 424.132 194.3 414.132 184.3 401.732 184.3 L 401.732 184.3 Z " fill="rgb(255,255,255)"/><path d=" M 451.832 405.1 C 443.032 405.1 428.432 413.2 415.032 426.4 C 397.632 443.4 388.732 462.4 395.032 468.9 C 396.432 470.3 398.532 471 401.132 471 C 409.932 471 424.532 462.9 437.932 449.7 C 455.232 432.7 464.232 413.6 457.932 407.2 C 456.532 405.7 454.432 405.1 451.832 405.1 Z " fill="rgb(255,255,255)"/><path d=" M 351.632 404.1 C 349.232 404.1 347.232 404.8 345.832 406.1 C 339.332 412.4 347.932 431.6 365.032 449 C 378.332 462.6 392.932 471 401.632 471 C 404.032 471 406.132 470.3 407.532 469 C 413.932 462.7 405.332 443.5 388.332 426.1 C 375.032 412.5 360.432 404.1 351.732 404.1 L 351.632 404.1 Z " fill="rgb(255,255,255)"/><path d=" M 401.732 370.9 C 389.332 370.9 379.332 380.9 379.332 393.3 C 379.332 405.7 389.332 415.7 401.732 415.7 C 414.132 415.7 424.132 405.7 424.132 393.3 C 424.132 380.9 414.132 370.9 401.732 370.9 Z " fill="rgb(255,255,255)"/><path d=" M 237.132 289 C 234.732 289 232.732 289.7 231.232 291 C 224.832 297.3 233.432 316.5 250.432 333.9 C 263.732 347.5 278.332 355.9 287.132 355.9 C 289.532 355.9 291.532 355.2 292.932 353.9 C 299.432 347.6 290.832 328.4 273.732 311 C 260.432 297.4 245.832 289 237.132 289 Z " fill="rgb(255,255,255)"/><path d=" M 288.032 239.7 C 279.232 239.7 264.632 247.8 251.232 261 C 233.832 278 224.932 297 231.232 303.5 C 232.632 304.9 234.732 305.6 237.332 305.6 C 246.132 305.6 260.732 297.5 274.132 284.3 C 291.432 267.3 300.432 248.2 294.132 241.8 C 292.732 240.3 290.632 239.7 288.032 239.7 L 288.032 239.7 Z " fill="rgb(255,255,255)"/><path d=" M 306.832 275.4 C 294.432 275.4 284.432 285.4 284.432 297.8 C 284.432 310.2 294.432 320.2 306.832 320.2 C 319.232 320.2 329.232 310.2 329.232 297.8 C 329.232 285.4 319.232 275.4 306.832 275.4 Z " fill="rgb(255,255,255)"/></g></g></svg>